<?xml version="1.0" encoding="UTF-8"?><svg id="Layer_2" xmlns="http://www.w3.org/2000/svg" viewBox="0 0 156.73 156.73"><defs><style>.cls-1{fill:#f5c317;}.cls-1,.cls-2,.cls-3{stroke:#231f20;stroke-miterlimit:10;}.cls-1,.cls-3{stroke-width:3px;}.cls-2{fill:#5c6d31;stroke-width:7px;}.cls-3{fill:#8a5e37;}</style></defs><g id="Layer_1-2"><g id="woody_icon"><rect class="cls-2" x="3.5" y="3.5" width="149.73" height="149.73" rx="23.81" ry="23.81"/><path class="cls-3" d="M114.53,46.18c13.41,7.19-3.57,33.34-17.32,27.93-16.18-6.37,2.8-35.71,17.32-27.93Z"/><path class="cls-3" d="M82.87,29.44c17.49,5.94,3.16,40.53-11.56,30.76-11.99-7.96-.81-34.96,11.56-30.76Z"/><path class="cls-3" d="M49.89,40.76c15.83,5.71,7.4,35.45-6.8,29.31-14.23-6.16-6.32-34.04,6.8-29.31Z"/><path class="cls-3" d="M121.45,79.29c16.58,5.83-.78,30.59-15.26,24.73-15.27-6.19,1.31-29.63,15.26-24.73Z"/><path class="cls-3" d="M84.66,127.14c-11.59,3.32-16.48-8.14-24.56-13.03-8.4-5.08-22.56-2.65-26.44-14.04-3-8.81,2.97-17.25,10.69-21.08,3.72-1.85,7.96-2.42,11.83-3.88,7.98-3.01,17.17-11.44,26.07-7.59,11.03,4.76,8.36,17.37,10.44,26.89.7,3.23,2.24,6.55,2.92,9.76,1.95,9.25-.96,20.11-10.95,22.97Z"/><path class="cls-1" d="M111.53,42.18c13.41,7.19-3.57,33.34-17.32,27.93-16.18-6.37,2.8-35.71,17.32-27.93Z"/><path class="cls-1" d="M79.87,25.44c17.49,5.94,3.16,40.53-11.56,30.76-11.99-7.96-.81-34.96,11.56-30.76Z"/><path class="cls-1" d="M46.89,36.76c15.83,5.71,7.4,35.45-6.8,29.31-14.23-6.16-6.32-34.04,6.8-29.31Z"/><path class="cls-1" d="M118.45,75.29c16.58,5.83-.78,30.59-15.26,24.73-15.27-6.19,1.31-29.63,15.26-24.73Z"/><path class="cls-1" d="M81.66,123.14c-11.59,3.32-16.48-8.14-24.56-13.03-8.4-5.08-22.56-2.65-26.44-14.04-3-8.81,2.97-17.25,10.69-21.08,3.72-1.85,7.96-2.42,11.83-3.88,7.98-3.01,17.17-11.44,26.07-7.59,11.03,4.76,8.36,17.37,10.44,26.89.7,3.23,2.24,6.55,2.92,9.76,1.95,9.25-.96,20.11-10.95,22.97Z"/></g></g></svg>